<svg xmlns="http://www.w3.org/2000/svg" viewBox="0 0 24 24" fill="none">
    <path class="delete-icon-stroke" 
          d="M4.5 12L8.5 17C8.8 17.4 9 17.6 9.2 17.7C9.4 17.8 9.6 17.9 9.8 18C10 18 10.2 18 10.7 18H18C18.8 18 19.2 18 19.5 17.8C19.7 17.7 19.9 17.5 20.1 17.3C20.2 17 20.2 16.6 20.2 15.8V8.2C20.2 7.4 20.2 7 20.1 6.7C19.9 6.5 19.7 6.3 19.5 6.2C19.2 6 18.8 6 18 6H10.7C10.2 6 10 6 9.8 6C9.6 6.1 9.4 6.2 9.2 6.3C9 6.4 8.8 6.6 8.5 7L4.5 12ZM12 9L17 14M17 9L12 14" 
          stroke="#000000" 
          stroke-width="2" 
          stroke-linecap="round" 
          stroke-linejoin="round"/>
</svg>