<svg xmlns="http://www.w3.org/2000/svg" viewBox="0 0 24 24" fill="none">
    <path class="edit-icon-stroke"
          d="M19.5 8L12 15.5C11.2 16.3 9 16.7 8.4 16.1C7.8 15.5 8.2 13.3 9 12.5L16.5 5C16.7 4.8 16.9 4.6 17.2 4.5C17.5 4.4 17.8 4.3 18.1 4.3C18.4 4.3 18.7 4.3 18.9 4.4C19.2 4.5 19.4 4.7 19.6 4.9C19.8 5.1 20 5.3 20.1 5.6C20.2 5.9 20.3 6.2 20.2 6.5C20.2 6.8 20.1 7.1 20 7.3C19.9 7.6 19.7 7.8 19.5 8Z"
          stroke="#000000"
          stroke-width="2"
          stroke-linecap="round"
          stroke-linejoin="round"/>
    <path class="edit-icon-stroke"
          d="M11.5 6H7.5C6.7 6 5.9 6.3 5.3 6.9C4.7 7.5 4.4 8.3 4.4 9.1V16.9C4.4 17.7 4.7 18.5 5.3 19.1C5.9 19.7 6.7 20 7.5 20H16.3C18 20 18.7 18.6 18.7 16.9V13"
          stroke="#000000"
          stroke-width="2"
          stroke-linecap="round"
          stroke-linejoin="round"/>
</svg>